<mxfile host="Electron" modified="2023-04-24T16:32:31.828Z" agent="Mozilla/5.0 (X11; Linux x86_64) AppleWebKit/537.36 (KHTML, like Gecko) draw.io/21.2.1 Chrome/112.0.5615.87 Electron/24.1.2 Safari/537.36" etag="KQV8xwheA71e9O4KQLKs" version="21.2.1" type="device">
  <diagram name="Page-1" id="GxsDX9YN8r3V6NleSVa3">
    <mxGraphModel dx="752" dy="824" grid="1" gridSize="10" guides="1" tooltips="1" connect="1" arrows="1" fold="1" page="1" pageScale="1" pageWidth="850" pageHeight="1100" math="0" shadow="0">
      <root>
        <mxCell id="0" />
        <mxCell id="1" parent="0" />
        <mxCell id="Z-PUwXvcyrmnUzOFV4Wm-22" value="" style="group" vertex="1" connectable="0" parent="1">
          <mxGeometry x="90" y="40" width="360" height="480" as="geometry" />
        </mxCell>
        <mxCell id="Z-PUwXvcyrmnUzOFV4Wm-18" value="" style="rounded=1;whiteSpace=wrap;html=1;" vertex="1" parent="Z-PUwXvcyrmnUzOFV4Wm-22">
          <mxGeometry width="360" height="480" as="geometry" />
        </mxCell>
        <mxCell id="Z-PUwXvcyrmnUzOFV4Wm-17" value="" style="rounded=1;whiteSpace=wrap;html=1;fillColor=#FFCCCC;" vertex="1" parent="Z-PUwXvcyrmnUzOFV4Wm-22">
          <mxGeometry x="40" y="40" width="280" height="400" as="geometry" />
        </mxCell>
        <mxCell id="Z-PUwXvcyrmnUzOFV4Wm-16" value="" style="rounded=1;whiteSpace=wrap;html=1;fillColor=#0091FF;" vertex="1" parent="Z-PUwXvcyrmnUzOFV4Wm-22">
          <mxGeometry x="80" y="80" width="200" height="320" as="geometry" />
        </mxCell>
        <mxCell id="Z-PUwXvcyrmnUzOFV4Wm-15" value="" style="rounded=1;whiteSpace=wrap;html=1;fillColor=#00CCFF;" vertex="1" parent="Z-PUwXvcyrmnUzOFV4Wm-22">
          <mxGeometry x="100" y="130" width="160" height="260" as="geometry" />
        </mxCell>
        <mxCell id="Z-PUwXvcyrmnUzOFV4Wm-9" value="ANALYTICS WORKSPACE" style="text;html=1;align=center;verticalAlign=middle;resizable=0;points=[];autosize=1;strokeColor=none;fillColor=none;" vertex="1" parent="Z-PUwXvcyrmnUzOFV4Wm-22">
          <mxGeometry x="95" y="50" width="170" height="30" as="geometry" />
        </mxCell>
        <mxCell id="Z-PUwXvcyrmnUzOFV4Wm-10" value="" style="sketch=0;html=1;dashed=0;whitespace=wrap;fillColor=#2875E2;strokeColor=#ffffff;points=[[0.005,0.63,0],[0.1,0.2,0],[0.9,0.2,0],[0.5,0,0],[0.995,0.63,0],[0.72,0.99,0],[0.5,1,0],[0.28,0.99,0]];verticalLabelPosition=bottom;align=center;verticalAlign=top;shape=mxgraph.kubernetes.icon;prIcon=pod" vertex="1" parent="Z-PUwXvcyrmnUzOFV4Wm-22">
          <mxGeometry x="165" y="80" width="30" height="40" as="geometry" />
        </mxCell>
        <mxCell id="Z-PUwXvcyrmnUzOFV4Wm-12" value="" style="sketch=0;outlineConnect=0;fontColor=#232F3E;gradientColor=none;fillColor=#000000;strokeColor=none;dashed=0;verticalLabelPosition=bottom;verticalAlign=top;align=center;html=1;fontSize=12;fontStyle=0;aspect=fixed;pointerEvents=1;shape=mxgraph.aws4.notebook;" vertex="1" parent="Z-PUwXvcyrmnUzOFV4Wm-22">
          <mxGeometry x="162.57" y="140" width="34.87" height="40" as="geometry" />
        </mxCell>
        <mxCell id="Z-PUwXvcyrmnUzOFV4Wm-13" value="MLFLOW CLIENT" style="rounded=1;whiteSpace=wrap;html=1;" vertex="1" parent="Z-PUwXvcyrmnUzOFV4Wm-22">
          <mxGeometry x="120" y="190" width="120" height="80" as="geometry" />
        </mxCell>
        <mxCell id="Z-PUwXvcyrmnUzOFV4Wm-14" value="KUBEFLOW DASHBOARD" style="rounded=1;whiteSpace=wrap;html=1;" vertex="1" parent="Z-PUwXvcyrmnUzOFV4Wm-22">
          <mxGeometry x="120" y="290" width="120" height="80" as="geometry" />
        </mxCell>
        <mxCell id="Z-PUwXvcyrmnUzOFV4Wm-19" value="ML PIPELINE DEVELOPMENT" style="text;html=1;strokeColor=none;fillColor=none;align=center;verticalAlign=middle;whiteSpace=wrap;rounded=0;" vertex="1" parent="Z-PUwXvcyrmnUzOFV4Wm-22">
          <mxGeometry x="125" y="5" width="125" height="30" as="geometry" />
        </mxCell>
        <mxCell id="Z-PUwXvcyrmnUzOFV4Wm-20" value="" style="image;aspect=fixed;perimeter=ellipsePerimeter;html=1;align=center;shadow=0;dashed=0;fontColor=#4277BB;labelBackgroundColor=default;fontSize=12;spacingTop=3;image=img/lib/ibm/devops/collaborative_development.svg;" vertex="1" parent="Z-PUwXvcyrmnUzOFV4Wm-22">
          <mxGeometry x="90" width="40" height="40" as="geometry" />
        </mxCell>
        <mxCell id="Z-PUwXvcyrmnUzOFV4Wm-21" value="USER POD" style="text;html=1;strokeColor=none;fillColor=none;align=center;verticalAlign=middle;whiteSpace=wrap;rounded=0;" vertex="1" parent="Z-PUwXvcyrmnUzOFV4Wm-22">
          <mxGeometry x="140" y="110" width="80" height="30" as="geometry" />
        </mxCell>
        <mxCell id="Z-PUwXvcyrmnUzOFV4Wm-32" value="" style="group" vertex="1" connectable="0" parent="1">
          <mxGeometry x="550" y="360" width="240" height="280" as="geometry" />
        </mxCell>
        <mxCell id="Z-PUwXvcyrmnUzOFV4Wm-30" value="" style="rounded=1;whiteSpace=wrap;html=1;fillColor=#D5E8D4;" vertex="1" parent="Z-PUwXvcyrmnUzOFV4Wm-32">
          <mxGeometry width="240" height="280" as="geometry" />
        </mxCell>
        <mxCell id="Z-PUwXvcyrmnUzOFV4Wm-27" value="&lt;blockquote style=&quot;margin: 0 0 0 40px; border: none; padding: 0px;&quot;&gt;METADATA &amp;amp; METRICS DB&lt;/blockquote&gt;" style="rounded=1;whiteSpace=wrap;html=1;" vertex="1" parent="Z-PUwXvcyrmnUzOFV4Wm-32">
          <mxGeometry x="40" y="40" width="160" height="90" as="geometry" />
        </mxCell>
        <mxCell id="Z-PUwXvcyrmnUzOFV4Wm-28" value="" style="strokeWidth=2;html=1;shape=mxgraph.flowchart.database;whiteSpace=wrap;" vertex="1" parent="Z-PUwXvcyrmnUzOFV4Wm-32">
          <mxGeometry x="50" y="68.75" width="40" height="32.5" as="geometry" />
        </mxCell>
        <mxCell id="Z-PUwXvcyrmnUzOFV4Wm-119" style="edgeStyle=orthogonalEdgeStyle;rounded=0;orthogonalLoop=1;jettySize=auto;html=1;exitX=0.5;exitY=0;exitDx=0;exitDy=0;" edge="1" parent="Z-PUwXvcyrmnUzOFV4Wm-32" source="Z-PUwXvcyrmnUzOFV4Wm-29" target="Z-PUwXvcyrmnUzOFV4Wm-27">
          <mxGeometry relative="1" as="geometry" />
        </mxCell>
        <mxCell id="Z-PUwXvcyrmnUzOFV4Wm-29" value="MLFLOW TRACKING SERVER" style="rounded=1;whiteSpace=wrap;html=1;" vertex="1" parent="Z-PUwXvcyrmnUzOFV4Wm-32">
          <mxGeometry x="40" y="160" width="160" height="80" as="geometry" />
        </mxCell>
        <mxCell id="Z-PUwXvcyrmnUzOFV4Wm-31" value="EXPERIMENT TRACKING" style="text;html=1;strokeColor=none;fillColor=none;align=center;verticalAlign=middle;whiteSpace=wrap;rounded=0;" vertex="1" parent="Z-PUwXvcyrmnUzOFV4Wm-32">
          <mxGeometry x="30" y="10" width="180" height="30" as="geometry" />
        </mxCell>
        <mxCell id="Z-PUwXvcyrmnUzOFV4Wm-33" value="" style="group" vertex="1" connectable="0" parent="1">
          <mxGeometry x="520" y="160" width="160" height="80" as="geometry" />
        </mxCell>
        <mxCell id="Z-PUwXvcyrmnUzOFV4Wm-24" value="&lt;blockquote style=&quot;margin: 0 0 0 40px; border: none; padding: 0px;&quot;&gt;SOURCE RESPOSITORY (MASTER BRANCH)&lt;/blockquote&gt;" style="rounded=1;whiteSpace=wrap;html=1;" vertex="1" parent="Z-PUwXvcyrmnUzOFV4Wm-33">
          <mxGeometry width="160" height="80" as="geometry" />
        </mxCell>
        <mxCell id="Z-PUwXvcyrmnUzOFV4Wm-26" value="" style="sketch=0;outlineConnect=0;fontColor=#232F3E;gradientColor=none;fillColor=#232F3D;strokeColor=none;dashed=0;verticalLabelPosition=bottom;verticalAlign=top;align=center;html=1;fontSize=12;fontStyle=0;aspect=fixed;pointerEvents=1;shape=mxgraph.aws4.git_repository;" vertex="1" parent="Z-PUwXvcyrmnUzOFV4Wm-33">
          <mxGeometry x="10" y="20.5" width="30" height="39" as="geometry" />
        </mxCell>
        <mxCell id="Z-PUwXvcyrmnUzOFV4Wm-34" value="" style="group" vertex="1" connectable="0" parent="1">
          <mxGeometry x="520" y="40" width="160" height="80" as="geometry" />
        </mxCell>
        <mxCell id="Z-PUwXvcyrmnUzOFV4Wm-23" value="&lt;blockquote style=&quot;margin: 0 0 0 40px; border: none; padding: 0px;&quot;&gt;SOURCE RESPOSITORY (NON-MASTER BRANCH)&lt;/blockquote&gt;" style="rounded=1;whiteSpace=wrap;html=1;" vertex="1" parent="Z-PUwXvcyrmnUzOFV4Wm-34">
          <mxGeometry width="160" height="80" as="geometry" />
        </mxCell>
        <mxCell id="Z-PUwXvcyrmnUzOFV4Wm-25" value="" style="sketch=0;outlineConnect=0;fontColor=#232F3E;gradientColor=none;fillColor=#232F3D;strokeColor=none;dashed=0;verticalLabelPosition=bottom;verticalAlign=top;align=center;html=1;fontSize=12;fontStyle=0;aspect=fixed;pointerEvents=1;shape=mxgraph.aws4.git_repository;" vertex="1" parent="Z-PUwXvcyrmnUzOFV4Wm-34">
          <mxGeometry x="10" y="20.5" width="30" height="39" as="geometry" />
        </mxCell>
        <mxCell id="Z-PUwXvcyrmnUzOFV4Wm-39" value="" style="group" vertex="1" connectable="0" parent="1">
          <mxGeometry x="760" y="40" width="250" height="120" as="geometry" />
        </mxCell>
        <mxCell id="Z-PUwXvcyrmnUzOFV4Wm-40" value="DEPLOY STAGING MODEL TO PRODUCTION" style="rounded=1;whiteSpace=wrap;html=1;fillColor=#00CCFF;" vertex="1" parent="Z-PUwXvcyrmnUzOFV4Wm-39">
          <mxGeometry width="250" height="120" as="geometry" />
        </mxCell>
        <mxCell id="Z-PUwXvcyrmnUzOFV4Wm-41" value="AUTOMATION (DEV CI/CD PIPELINE)" style="text;html=1;strokeColor=none;fillColor=none;align=center;verticalAlign=middle;whiteSpace=wrap;rounded=0;" vertex="1" parent="Z-PUwXvcyrmnUzOFV4Wm-39">
          <mxGeometry x="10" width="230" height="30" as="geometry" />
        </mxCell>
        <mxCell id="Z-PUwXvcyrmnUzOFV4Wm-42" value="" style="image;aspect=fixed;html=1;points=[];align=center;fontSize=12;image=img/lib/azure2/general/Code.svg;" vertex="1" parent="Z-PUwXvcyrmnUzOFV4Wm-39">
          <mxGeometry x="13" y="70" width="36.92" height="30" as="geometry" />
        </mxCell>
        <mxCell id="Z-PUwXvcyrmnUzOFV4Wm-54" value="" style="group" vertex="1" connectable="0" parent="1">
          <mxGeometry x="1080" y="30" width="280" height="300" as="geometry" />
        </mxCell>
        <mxCell id="Z-PUwXvcyrmnUzOFV4Wm-53" value="" style="rounded=1;whiteSpace=wrap;html=1;fillColor=#00CCFF;" vertex="1" parent="Z-PUwXvcyrmnUzOFV4Wm-54">
          <mxGeometry width="280" height="300" as="geometry" />
        </mxCell>
        <mxCell id="Z-PUwXvcyrmnUzOFV4Wm-124" value="" style="rounded=1;whiteSpace=wrap;html=1;fillColor=#D4E1F5;" vertex="1" parent="Z-PUwXvcyrmnUzOFV4Wm-54">
          <mxGeometry x="50" y="31.03448275862069" width="180" height="258.62068965517244" as="geometry" />
        </mxCell>
        <mxCell id="Z-PUwXvcyrmnUzOFV4Wm-46" value="" style="group" vertex="1" connectable="0" parent="Z-PUwXvcyrmnUzOFV4Wm-54">
          <mxGeometry x="60" y="103.44827586206897" width="160" height="82.75862068965517" as="geometry" />
        </mxCell>
        <mxCell id="Z-PUwXvcyrmnUzOFV4Wm-44" value="KUBERNETES" style="rounded=1;whiteSpace=wrap;html=1;align=right;" vertex="1" parent="Z-PUwXvcyrmnUzOFV4Wm-46">
          <mxGeometry width="160" height="82.75862068965517" as="geometry" />
        </mxCell>
        <mxCell id="Z-PUwXvcyrmnUzOFV4Wm-45" value="" style="image;sketch=0;aspect=fixed;html=1;points=[];align=center;fontSize=12;image=img/lib/mscae/Kubernetes.svg;" vertex="1" parent="Z-PUwXvcyrmnUzOFV4Wm-46">
          <mxGeometry x="10" y="8.275862068965518" width="50" height="48" as="geometry" />
        </mxCell>
        <mxCell id="Z-PUwXvcyrmnUzOFV4Wm-48" value="" style="shape=image;verticalLabelPosition=bottom;labelBackgroundColor=default;verticalAlign=top;aspect=fixed;imageAspect=0;image=file:///home/josephwoodall/Pictures/Screenshots/Screenshot%20from%202023-04-24%2010-51-44.png;" vertex="1" parent="Z-PUwXvcyrmnUzOFV4Wm-54">
          <mxGeometry x="86.54999999999997" y="41.37931034482759" width="106.91" height="40" as="geometry" />
        </mxCell>
        <mxCell id="Z-PUwXvcyrmnUzOFV4Wm-52" value="MODEL DEPLOYMENT (STAGING" style="text;html=1;strokeColor=none;fillColor=none;align=center;verticalAlign=middle;whiteSpace=wrap;rounded=0;" vertex="1" parent="Z-PUwXvcyrmnUzOFV4Wm-54">
          <mxGeometry x="40" width="210" height="31.03448275862069" as="geometry" />
        </mxCell>
        <mxCell id="Z-PUwXvcyrmnUzOFV4Wm-82" value="" style="group" vertex="1" connectable="0" parent="Z-PUwXvcyrmnUzOFV4Wm-54">
          <mxGeometry x="60" y="196.55172413793105" width="160" height="82.75862068965517" as="geometry" />
        </mxCell>
        <mxCell id="Z-PUwXvcyrmnUzOFV4Wm-47" value="&lt;blockquote style=&quot;margin: 0 0 0 40px; border: none; padding: 0px;&quot;&gt;&lt;div style=&quot;text-align: justify;&quot;&gt;&lt;span style=&quot;background-color: initial;&quot;&gt;MLFLOW&amp;nbsp;&lt;/span&gt;&lt;/div&gt;&lt;div style=&quot;text-align: justify;&quot;&gt;&lt;span style=&quot;background-color: initial;&quot;&gt;MODELS&lt;/span&gt;&lt;/div&gt;&lt;/blockquote&gt;" style="rounded=1;whiteSpace=wrap;html=1;align=center;" vertex="1" parent="Z-PUwXvcyrmnUzOFV4Wm-82">
          <mxGeometry width="160" height="82.75862068965517" as="geometry" />
        </mxCell>
        <mxCell id="Z-PUwXvcyrmnUzOFV4Wm-49" value="" style="shape=image;verticalLabelPosition=bottom;labelBackgroundColor=default;verticalAlign=top;aspect=fixed;imageAspect=0;image=file:///home/josephwoodall/Pictures/Screenshots/Screenshot%20from%202023-04-24%2010-54-09.png;" vertex="1" parent="Z-PUwXvcyrmnUzOFV4Wm-82">
          <mxGeometry x="20" y="22.43793103448276" width="40.65" height="36.63" as="geometry" />
        </mxCell>
        <mxCell id="Z-PUwXvcyrmnUzOFV4Wm-56" value="" style="group" vertex="1" connectable="0" parent="1">
          <mxGeometry x="1080" y="370" width="280" height="280" as="geometry" />
        </mxCell>
        <mxCell id="Z-PUwXvcyrmnUzOFV4Wm-57" value="" style="rounded=1;whiteSpace=wrap;html=1;fillColor=#97D077;" vertex="1" parent="Z-PUwXvcyrmnUzOFV4Wm-56">
          <mxGeometry width="280" height="280" as="geometry" />
        </mxCell>
        <mxCell id="Z-PUwXvcyrmnUzOFV4Wm-62" value="" style="shape=image;verticalLabelPosition=bottom;labelBackgroundColor=default;verticalAlign=top;aspect=fixed;imageAspect=0;image=file:///home/josephwoodall/Pictures/Screenshots/Screenshot from 2023-04-24 10-51-44.png;" vertex="1" parent="Z-PUwXvcyrmnUzOFV4Wm-56">
          <mxGeometry x="86.54999999999995" y="50" width="106.91" height="40" as="geometry" />
        </mxCell>
        <mxCell id="Z-PUwXvcyrmnUzOFV4Wm-64" value="MODEL DEPLOYMENT &amp;amp; SERVING (PRODUCTION)" style="text;html=1;strokeColor=none;fillColor=none;align=center;verticalAlign=middle;whiteSpace=wrap;rounded=0;" vertex="1" parent="Z-PUwXvcyrmnUzOFV4Wm-56">
          <mxGeometry x="39.99" y="10" width="210" height="30" as="geometry" />
        </mxCell>
        <mxCell id="Z-PUwXvcyrmnUzOFV4Wm-58" value="" style="group" vertex="1" connectable="0" parent="Z-PUwXvcyrmnUzOFV4Wm-56">
          <mxGeometry x="60" y="100" width="160" height="80" as="geometry" />
        </mxCell>
        <mxCell id="Z-PUwXvcyrmnUzOFV4Wm-59" value="KUBERNETES" style="rounded=1;whiteSpace=wrap;html=1;align=right;" vertex="1" parent="Z-PUwXvcyrmnUzOFV4Wm-58">
          <mxGeometry width="160" height="80" as="geometry" />
        </mxCell>
        <mxCell id="Z-PUwXvcyrmnUzOFV4Wm-60" value="" style="image;sketch=0;aspect=fixed;html=1;points=[];align=center;fontSize=12;image=img/lib/mscae/Kubernetes.svg;" vertex="1" parent="Z-PUwXvcyrmnUzOFV4Wm-58">
          <mxGeometry x="10" y="8" width="50" height="48" as="geometry" />
        </mxCell>
        <mxCell id="Z-PUwXvcyrmnUzOFV4Wm-83" value="" style="group" vertex="1" connectable="0" parent="Z-PUwXvcyrmnUzOFV4Wm-56">
          <mxGeometry x="60" y="190" width="160" height="80" as="geometry" />
        </mxCell>
        <mxCell id="Z-PUwXvcyrmnUzOFV4Wm-61" value="&lt;blockquote style=&quot;margin: 0 0 0 40px; border: none; padding: 0px;&quot;&gt;MLFLOW&lt;br&gt; MODELS&lt;/blockquote&gt;" style="rounded=1;whiteSpace=wrap;html=1;align=center;" vertex="1" parent="Z-PUwXvcyrmnUzOFV4Wm-83">
          <mxGeometry width="160" height="80" as="geometry" />
        </mxCell>
        <mxCell id="Z-PUwXvcyrmnUzOFV4Wm-76" value="" style="shape=image;verticalLabelPosition=bottom;labelBackgroundColor=default;verticalAlign=top;aspect=fixed;imageAspect=0;image=file:///home/josephwoodall/Pictures/Screenshots/Screenshot from 2023-04-24 10-54-09.png;" vertex="1" parent="Z-PUwXvcyrmnUzOFV4Wm-83">
          <mxGeometry x="19.999999999999915" y="21.680000000000064" width="40.65" height="36.63" as="geometry" />
        </mxCell>
        <mxCell id="Z-PUwXvcyrmnUzOFV4Wm-104" value="" style="group" vertex="1" connectable="0" parent="1">
          <mxGeometry x="1520" y="318.8" width="240" height="362.4" as="geometry" />
        </mxCell>
        <mxCell id="Z-PUwXvcyrmnUzOFV4Wm-92" value="" style="rounded=1;whiteSpace=wrap;html=1;fillColor=#FFE599;" vertex="1" parent="Z-PUwXvcyrmnUzOFV4Wm-104">
          <mxGeometry width="240" height="362.4" as="geometry" />
        </mxCell>
        <mxCell id="Z-PUwXvcyrmnUzOFV4Wm-93" value="CONSUMPTION" style="text;html=1;strokeColor=none;fillColor=none;align=center;verticalAlign=middle;whiteSpace=wrap;rounded=0;" vertex="1" parent="Z-PUwXvcyrmnUzOFV4Wm-104">
          <mxGeometry x="90" y="2.3999999999999773" width="60" height="30" as="geometry" />
        </mxCell>
        <mxCell id="Z-PUwXvcyrmnUzOFV4Wm-97" value="" style="group" vertex="1" connectable="0" parent="Z-PUwXvcyrmnUzOFV4Wm-104">
          <mxGeometry x="40" y="252.39999999999998" width="160" height="80" as="geometry" />
        </mxCell>
        <mxCell id="Z-PUwXvcyrmnUzOFV4Wm-89" value="&lt;blockquote style=&quot;margin: 0 0 0 40px; border: none; padding: 0px;&quot;&gt;&lt;div style=&quot;&quot;&gt;&lt;span style=&quot;background-color: initial;&quot;&gt;ENTERPRISE&lt;/span&gt;&lt;/div&gt; &lt;div style=&quot;&quot;&gt;&lt;span style=&quot;background-color: initial;&quot;&gt;APPLICATION / DASHBOARD&lt;/span&gt;&lt;/div&gt;&lt;/blockquote&gt;" style="rounded=1;whiteSpace=wrap;html=1;align=center;" vertex="1" parent="Z-PUwXvcyrmnUzOFV4Wm-97">
          <mxGeometry width="160" height="80" as="geometry" />
        </mxCell>
        <mxCell id="Z-PUwXvcyrmnUzOFV4Wm-90" value="" style="image;html=1;image=img/lib/clip_art/computers/Virtual_Application_128x128.png" vertex="1" parent="Z-PUwXvcyrmnUzOFV4Wm-97">
          <mxGeometry x="10" y="17.5" width="37.6" height="45" as="geometry" />
        </mxCell>
        <mxCell id="Z-PUwXvcyrmnUzOFV4Wm-101" value="" style="group" vertex="1" connectable="0" parent="Z-PUwXvcyrmnUzOFV4Wm-104">
          <mxGeometry x="20" y="32.39999999999998" width="190" height="206.44" as="geometry" />
        </mxCell>
        <mxCell id="Z-PUwXvcyrmnUzOFV4Wm-95" value="" style="group" vertex="1" connectable="0" parent="Z-PUwXvcyrmnUzOFV4Wm-101">
          <mxGeometry x="20" y="16.439999999999998" width="170" height="190" as="geometry" />
        </mxCell>
        <mxCell id="Z-PUwXvcyrmnUzOFV4Wm-100" value="" style="group" vertex="1" connectable="0" parent="Z-PUwXvcyrmnUzOFV4Wm-95">
          <mxGeometry x="-10" y="-10" width="180" height="200" as="geometry" />
        </mxCell>
        <mxCell id="Z-PUwXvcyrmnUzOFV4Wm-99" value="" style="rounded=1;whiteSpace=wrap;html=1;" vertex="1" parent="Z-PUwXvcyrmnUzOFV4Wm-100">
          <mxGeometry width="180" height="200" as="geometry" />
        </mxCell>
        <mxCell id="Z-PUwXvcyrmnUzOFV4Wm-103" value="" style="group" vertex="1" connectable="0" parent="Z-PUwXvcyrmnUzOFV4Wm-100">
          <mxGeometry x="10" width="160" height="103.56" as="geometry" />
        </mxCell>
        <mxCell id="Z-PUwXvcyrmnUzOFV4Wm-84" value="&lt;blockquote style=&quot;margin: 0 0 0 40px; border: none; padding: 0px;&quot;&gt;WEB UI&lt;/blockquote&gt;" style="rounded=1;whiteSpace=wrap;html=1;align=center;" vertex="1" parent="Z-PUwXvcyrmnUzOFV4Wm-103">
          <mxGeometry y="23.560000000000002" width="160" height="80" as="geometry" />
        </mxCell>
        <mxCell id="Z-PUwXvcyrmnUzOFV4Wm-85" value="" style="shadow=0;dashed=0;html=1;strokeColor=none;fillColor=#4495D1;labelPosition=center;verticalLabelPosition=bottom;verticalAlign=top;align=center;outlineConnect=0;shape=mxgraph.veeam.2d.web_ui;" vertex="1" parent="Z-PUwXvcyrmnUzOFV4Wm-103">
          <mxGeometry x="10" y="41.160000000000025" width="44.8" height="44.8" as="geometry" />
        </mxCell>
        <mxCell id="Z-PUwXvcyrmnUzOFV4Wm-102" value="MODEL FRONT END" style="text;html=1;strokeColor=none;fillColor=none;align=center;verticalAlign=middle;whiteSpace=wrap;rounded=0;" vertex="1" parent="Z-PUwXvcyrmnUzOFV4Wm-103">
          <mxGeometry x="30" width="120" height="30" as="geometry" />
        </mxCell>
        <mxCell id="Z-PUwXvcyrmnUzOFV4Wm-96" value="" style="group" vertex="1" connectable="0" parent="Z-PUwXvcyrmnUzOFV4Wm-101">
          <mxGeometry x="20" y="116.44" width="160" height="80" as="geometry" />
        </mxCell>
        <mxCell id="Z-PUwXvcyrmnUzOFV4Wm-87" value="&lt;blockquote style=&quot;margin: 0 0 0 40px; border: none; padding: 0px;&quot;&gt;END USERS&lt;/blockquote&gt;" style="rounded=1;whiteSpace=wrap;html=1;align=center;" vertex="1" parent="Z-PUwXvcyrmnUzOFV4Wm-96">
          <mxGeometry width="160" height="80" as="geometry" />
        </mxCell>
        <mxCell id="Z-PUwXvcyrmnUzOFV4Wm-86" value="" style="outlineConnect=0;dashed=0;verticalLabelPosition=bottom;verticalAlign=top;align=center;html=1;shape=mxgraph.aws3.users;fillColor=#D2D3D3;gradientColor=none;" vertex="1" parent="Z-PUwXvcyrmnUzOFV4Wm-96">
          <mxGeometry x="10" y="21.899999999999977" width="40" height="36.2" as="geometry" />
        </mxCell>
        <mxCell id="Z-PUwXvcyrmnUzOFV4Wm-98" value="" style="shape=image;verticalLabelPosition=bottom;labelBackgroundColor=default;verticalAlign=top;aspect=fixed;imageAspect=0;image=file:///home/josephwoodall/Pictures/Screenshots/Screenshot%20from%202023-04-24%2011-08-04.png;" vertex="1" parent="Z-PUwXvcyrmnUzOFV4Wm-101">
          <mxGeometry width="49" height="32.87" as="geometry" />
        </mxCell>
        <mxCell id="Z-PUwXvcyrmnUzOFV4Wm-106" value="" style="group" vertex="1" connectable="0" parent="1">
          <mxGeometry x="756.09" y="200" width="203.91" height="140" as="geometry" />
        </mxCell>
        <mxCell id="Z-PUwXvcyrmnUzOFV4Wm-36" value="DEPLOY STAGING MODEL TO PRODUCTION" style="rounded=1;whiteSpace=wrap;html=1;fillColor=#97D077;" vertex="1" parent="Z-PUwXvcyrmnUzOFV4Wm-106">
          <mxGeometry width="203.91" height="140" as="geometry" />
        </mxCell>
        <mxCell id="Z-PUwXvcyrmnUzOFV4Wm-43" value="" style="image;aspect=fixed;html=1;points=[];align=center;fontSize=12;image=img/lib/azure2/general/Code.svg;" vertex="1" parent="Z-PUwXvcyrmnUzOFV4Wm-106">
          <mxGeometry x="16.04449736842105" y="90" width="34.9342189368421" height="28.386418421052632" as="geometry" />
        </mxCell>
        <mxCell id="Z-PUwXvcyrmnUzOFV4Wm-107" value="AUTOMATION (PROD CI/CD)" style="text;html=1;align=center;verticalAlign=middle;resizable=0;points=[];autosize=1;strokeColor=none;fillColor=none;" vertex="1" parent="Z-PUwXvcyrmnUzOFV4Wm-106">
          <mxGeometry x="11.950969526315763" y="10" width="180" height="30" as="geometry" />
        </mxCell>
        <mxCell id="Z-PUwXvcyrmnUzOFV4Wm-108" style="edgeStyle=orthogonalEdgeStyle;rounded=0;orthogonalLoop=1;jettySize=auto;html=1;exitX=1;exitY=0.25;exitDx=0;exitDy=0;entryX=0;entryY=0.5;entryDx=0;entryDy=0;" edge="1" parent="1" source="Z-PUwXvcyrmnUzOFV4Wm-17" target="Z-PUwXvcyrmnUzOFV4Wm-23">
          <mxGeometry relative="1" as="geometry" />
        </mxCell>
        <mxCell id="Z-PUwXvcyrmnUzOFV4Wm-111" style="edgeStyle=orthogonalEdgeStyle;rounded=0;orthogonalLoop=1;jettySize=auto;html=1;exitX=1;exitY=0.5;exitDx=0;exitDy=0;entryX=0;entryY=0.5;entryDx=0;entryDy=0;" edge="1" parent="1" source="Z-PUwXvcyrmnUzOFV4Wm-24" target="Z-PUwXvcyrmnUzOFV4Wm-36">
          <mxGeometry relative="1" as="geometry" />
        </mxCell>
        <mxCell id="Z-PUwXvcyrmnUzOFV4Wm-112" style="edgeStyle=orthogonalEdgeStyle;rounded=0;orthogonalLoop=1;jettySize=auto;html=1;exitX=1;exitY=0.5;exitDx=0;exitDy=0;entryX=0;entryY=0.5;entryDx=0;entryDy=0;" edge="1" parent="1" source="Z-PUwXvcyrmnUzOFV4Wm-23" target="Z-PUwXvcyrmnUzOFV4Wm-40">
          <mxGeometry relative="1" as="geometry" />
        </mxCell>
        <mxCell id="Z-PUwXvcyrmnUzOFV4Wm-113" style="edgeStyle=orthogonalEdgeStyle;rounded=0;orthogonalLoop=1;jettySize=auto;html=1;exitX=0;exitY=0.5;exitDx=0;exitDy=0;entryX=1;entryY=0.5;entryDx=0;entryDy=0;" edge="1" parent="1" source="Z-PUwXvcyrmnUzOFV4Wm-29" target="Z-PUwXvcyrmnUzOFV4Wm-13">
          <mxGeometry relative="1" as="geometry">
            <Array as="points">
              <mxPoint x="530" y="560" />
              <mxPoint x="530" y="270" />
            </Array>
          </mxGeometry>
        </mxCell>
        <mxCell id="Z-PUwXvcyrmnUzOFV4Wm-114" style="edgeStyle=orthogonalEdgeStyle;rounded=0;orthogonalLoop=1;jettySize=auto;html=1;exitX=1;exitY=0.25;exitDx=0;exitDy=0;entryX=0;entryY=0.5;entryDx=0;entryDy=0;" edge="1" parent="1" source="Z-PUwXvcyrmnUzOFV4Wm-17" target="Z-PUwXvcyrmnUzOFV4Wm-24">
          <mxGeometry relative="1" as="geometry" />
        </mxCell>
        <mxCell id="Z-PUwXvcyrmnUzOFV4Wm-115" value="API REQUESTS" style="text;html=1;strokeColor=none;fillColor=none;align=center;verticalAlign=middle;whiteSpace=wrap;rounded=0;" vertex="1" parent="1">
          <mxGeometry x="460" y="270" width="60" height="30" as="geometry" />
        </mxCell>
        <mxCell id="Z-PUwXvcyrmnUzOFV4Wm-116" value="" style="group" vertex="1" connectable="0" parent="1">
          <mxGeometry x="800" y="410" width="160" height="80" as="geometry" />
        </mxCell>
        <mxCell id="Z-PUwXvcyrmnUzOFV4Wm-35" value="&lt;blockquote style=&quot;margin: 0 0 0 40px; border: none; padding: 0px;&quot;&gt;&lt;blockquote style=&quot;margin: 0 0 0 40px; border: none; padding: 0px;&quot;&gt;MLFLOW&amp;nbsp;&lt;/blockquote&gt;&lt;blockquote style=&quot;margin: 0 0 0 40px; border: none; padding: 0px;&quot;&gt;MODEL&amp;nbsp;&lt;/blockquote&gt;&lt;blockquote style=&quot;margin: 0 0 0 40px; border: none; padding: 0px;&quot;&gt;REGISTRY&lt;/blockquote&gt;&lt;/blockquote&gt;" style="rounded=1;whiteSpace=wrap;html=1;align=center;" vertex="1" parent="Z-PUwXvcyrmnUzOFV4Wm-116">
          <mxGeometry width="160" height="80" as="geometry" />
        </mxCell>
        <mxCell id="Z-PUwXvcyrmnUzOFV4Wm-110" value="" style="sketch=0;outlineConnect=0;fontColor=#232F3E;gradientColor=none;strokeColor=#0091FF;fillColor=#ffffff;dashed=0;verticalLabelPosition=bottom;verticalAlign=top;align=center;html=1;fontSize=12;fontStyle=0;aspect=fixed;shape=mxgraph.aws4.resourceIcon;resIcon=mxgraph.aws4.registry;" vertex="1" parent="Z-PUwXvcyrmnUzOFV4Wm-116">
          <mxGeometry x="10" y="10" width="60" height="60" as="geometry" />
        </mxCell>
        <mxCell id="Z-PUwXvcyrmnUzOFV4Wm-120" style="edgeStyle=orthogonalEdgeStyle;rounded=0;orthogonalLoop=1;jettySize=auto;html=1;exitX=1;exitY=0.5;exitDx=0;exitDy=0;entryX=0.5;entryY=1;entryDx=0;entryDy=0;" edge="1" parent="1" source="Z-PUwXvcyrmnUzOFV4Wm-29" target="Z-PUwXvcyrmnUzOFV4Wm-35">
          <mxGeometry relative="1" as="geometry" />
        </mxCell>
        <mxCell id="Z-PUwXvcyrmnUzOFV4Wm-121" style="edgeStyle=orthogonalEdgeStyle;rounded=0;orthogonalLoop=1;jettySize=auto;html=1;exitX=0.5;exitY=0;exitDx=0;exitDy=0;entryX=0.5;entryY=1;entryDx=0;entryDy=0;" edge="1" parent="1" source="Z-PUwXvcyrmnUzOFV4Wm-35" target="Z-PUwXvcyrmnUzOFV4Wm-36">
          <mxGeometry relative="1" as="geometry" />
        </mxCell>
        <mxCell id="Z-PUwXvcyrmnUzOFV4Wm-122" style="edgeStyle=orthogonalEdgeStyle;rounded=0;orthogonalLoop=1;jettySize=auto;html=1;exitX=1;exitY=0.5;exitDx=0;exitDy=0;entryX=0;entryY=0.5;entryDx=0;entryDy=0;" edge="1" parent="1" source="Z-PUwXvcyrmnUzOFV4Wm-36" target="Z-PUwXvcyrmnUzOFV4Wm-57">
          <mxGeometry relative="1" as="geometry">
            <Array as="points">
              <mxPoint x="1050" y="270" />
              <mxPoint x="1050" y="510" />
            </Array>
          </mxGeometry>
        </mxCell>
        <mxCell id="Z-PUwXvcyrmnUzOFV4Wm-123" style="edgeStyle=orthogonalEdgeStyle;rounded=0;orthogonalLoop=1;jettySize=auto;html=1;exitX=0.75;exitY=0;exitDx=0;exitDy=0;entryX=1;entryY=0.75;entryDx=0;entryDy=0;" edge="1" parent="1" source="Z-PUwXvcyrmnUzOFV4Wm-35" target="Z-PUwXvcyrmnUzOFV4Wm-40">
          <mxGeometry relative="1" as="geometry">
            <Array as="points">
              <mxPoint x="920" y="380" />
              <mxPoint x="1030" y="380" />
              <mxPoint x="1030" y="130" />
            </Array>
          </mxGeometry>
        </mxCell>
        <mxCell id="Z-PUwXvcyrmnUzOFV4Wm-125" style="edgeStyle=orthogonalEdgeStyle;rounded=0;orthogonalLoop=1;jettySize=auto;html=1;exitX=1;exitY=0.25;exitDx=0;exitDy=0;entryX=0;entryY=0.5;entryDx=0;entryDy=0;" edge="1" parent="1" source="Z-PUwXvcyrmnUzOFV4Wm-40" target="Z-PUwXvcyrmnUzOFV4Wm-124">
          <mxGeometry relative="1" as="geometry">
            <Array as="points">
              <mxPoint x="1060" y="70" />
              <mxPoint x="1060" y="190" />
            </Array>
          </mxGeometry>
        </mxCell>
        <mxCell id="Z-PUwXvcyrmnUzOFV4Wm-129" value="" style="group" vertex="1" connectable="0" parent="1">
          <mxGeometry x="1440" width="440" height="290" as="geometry" />
        </mxCell>
        <mxCell id="Z-PUwXvcyrmnUzOFV4Wm-80" value="" style="rounded=1;whiteSpace=wrap;html=1;fillColor=#D4E1F5;" vertex="1" parent="Z-PUwXvcyrmnUzOFV4Wm-129">
          <mxGeometry width="440" height="290" as="geometry" />
        </mxCell>
        <mxCell id="Z-PUwXvcyrmnUzOFV4Wm-79" value="&lt;blockquote style=&quot;margin: 0 0 0 40px; border: none; padding: 0px;&quot;&gt;&lt;blockquote style=&quot;margin: 0 0 0 40px; border: none; padding: 0px;&quot;&gt;GRAFANA&lt;/blockquote&gt;&lt;blockquote style=&quot;margin: 0 0 0 40px; border: none; padding: 0px;&quot;&gt;DASHBOARD&lt;/blockquote&gt;&lt;/blockquote&gt;" style="rounded=1;whiteSpace=wrap;html=1;align=center;" vertex="1" parent="Z-PUwXvcyrmnUzOFV4Wm-129">
          <mxGeometry x="30" y="160" width="160" height="80" as="geometry" />
        </mxCell>
        <mxCell id="Z-PUwXvcyrmnUzOFV4Wm-128" style="edgeStyle=orthogonalEdgeStyle;rounded=0;orthogonalLoop=1;jettySize=auto;html=1;exitX=0.5;exitY=1;exitDx=0;exitDy=0;entryX=0.5;entryY=0;entryDx=0;entryDy=0;" edge="1" parent="Z-PUwXvcyrmnUzOFV4Wm-129" source="Z-PUwXvcyrmnUzOFV4Wm-65" target="Z-PUwXvcyrmnUzOFV4Wm-79">
          <mxGeometry relative="1" as="geometry" />
        </mxCell>
        <mxCell id="Z-PUwXvcyrmnUzOFV4Wm-65" value="&lt;blockquote style=&quot;margin: 0 0 0 40px; border: none; padding: 0px;&quot;&gt;&lt;div style=&quot;&quot;&gt;&lt;span style=&quot;background-color: initial;&quot;&gt;&lt;font style=&quot;font-size: 11px;&quot;&gt;PROMETHEUS&amp;nbsp;&lt;/font&gt;&lt;/span&gt;&lt;/div&gt;&lt;div style=&quot;&quot;&gt;&lt;span style=&quot;background-color: initial;&quot;&gt;&lt;font style=&quot;font-size: 12px;&quot;&gt;SERVER&lt;/font&gt;&lt;/span&gt;&lt;/div&gt;&lt;/blockquote&gt;" style="rounded=1;whiteSpace=wrap;html=1;align=center;" vertex="1" parent="Z-PUwXvcyrmnUzOFV4Wm-129">
          <mxGeometry x="30" y="40" width="160" height="80" as="geometry" />
        </mxCell>
        <mxCell id="Z-PUwXvcyrmnUzOFV4Wm-75" value="" style="shape=image;verticalLabelPosition=bottom;labelBackgroundColor=default;verticalAlign=top;aspect=fixed;imageAspect=0;image=file:///home/josephwoodall/Pictures/Screenshots/Screenshot from 2023-04-24 10-54-09.png;" vertex="1" parent="Z-PUwXvcyrmnUzOFV4Wm-129">
          <mxGeometry x="40" y="61.980000000000004" width="40" height="36.04" as="geometry" />
        </mxCell>
        <mxCell id="Z-PUwXvcyrmnUzOFV4Wm-77" value="PROMETHEUS ALTER MANAGER" style="rounded=1;whiteSpace=wrap;html=1;" vertex="1" parent="Z-PUwXvcyrmnUzOFV4Wm-129">
          <mxGeometry x="230" y="40" width="160" height="80" as="geometry" />
        </mxCell>
        <mxCell id="Z-PUwXvcyrmnUzOFV4Wm-127" style="edgeStyle=orthogonalEdgeStyle;rounded=0;orthogonalLoop=1;jettySize=auto;html=1;exitX=1;exitY=0.5;exitDx=0;exitDy=0;" edge="1" parent="Z-PUwXvcyrmnUzOFV4Wm-129" source="Z-PUwXvcyrmnUzOFV4Wm-65" target="Z-PUwXvcyrmnUzOFV4Wm-77">
          <mxGeometry relative="1" as="geometry" />
        </mxCell>
        <mxCell id="Z-PUwXvcyrmnUzOFV4Wm-78" value="" style="image;aspect=fixed;html=1;points=[];align=center;fontSize=12;image=img/lib/azure2/other/Grafana.svg;" vertex="1" parent="Z-PUwXvcyrmnUzOFV4Wm-129">
          <mxGeometry x="40" y="176.79999999999998" width="59.76" height="46.4" as="geometry" />
        </mxCell>
        <mxCell id="Z-PUwXvcyrmnUzOFV4Wm-81" value="OPS &amp;amp; DATA SCIENCE MONITORING" style="text;html=1;strokeColor=none;fillColor=none;align=center;verticalAlign=middle;whiteSpace=wrap;rounded=0;" vertex="1" parent="Z-PUwXvcyrmnUzOFV4Wm-129">
          <mxGeometry x="100" y="10" width="220" height="30" as="geometry" />
        </mxCell>
        <mxCell id="Z-PUwXvcyrmnUzOFV4Wm-133" style="edgeStyle=orthogonalEdgeStyle;rounded=0;orthogonalLoop=1;jettySize=auto;html=1;exitX=1;exitY=0.25;exitDx=0;exitDy=0;entryX=0;entryY=0.25;entryDx=0;entryDy=0;" edge="1" parent="1" source="Z-PUwXvcyrmnUzOFV4Wm-53" target="Z-PUwXvcyrmnUzOFV4Wm-65">
          <mxGeometry relative="1" as="geometry">
            <Array as="points">
              <mxPoint x="1400" y="105" />
              <mxPoint x="1400" y="60" />
            </Array>
          </mxGeometry>
        </mxCell>
        <mxCell id="Z-PUwXvcyrmnUzOFV4Wm-134" style="edgeStyle=orthogonalEdgeStyle;rounded=0;orthogonalLoop=1;jettySize=auto;html=1;exitX=1;exitY=0.25;exitDx=0;exitDy=0;entryX=0;entryY=0.75;entryDx=0;entryDy=0;" edge="1" parent="1" source="Z-PUwXvcyrmnUzOFV4Wm-57" target="Z-PUwXvcyrmnUzOFV4Wm-65">
          <mxGeometry relative="1" as="geometry" />
        </mxCell>
        <mxCell id="Z-PUwXvcyrmnUzOFV4Wm-142" style="edgeStyle=orthogonalEdgeStyle;rounded=0;orthogonalLoop=1;jettySize=auto;html=1;exitX=1;exitY=0.75;exitDx=0;exitDy=0;entryX=0;entryY=0.75;entryDx=0;entryDy=0;" edge="1" parent="1" source="Z-PUwXvcyrmnUzOFV4Wm-57" target="Z-PUwXvcyrmnUzOFV4Wm-92">
          <mxGeometry relative="1" as="geometry">
            <Array as="points">
              <mxPoint x="1360" y="590" />
              <mxPoint x="1440" y="590" />
            </Array>
          </mxGeometry>
        </mxCell>
        <mxCell id="Z-PUwXvcyrmnUzOFV4Wm-143" value="PREDICTION REQUEST" style="text;html=1;strokeColor=none;fillColor=none;align=center;verticalAlign=middle;whiteSpace=wrap;rounded=0;" vertex="1" parent="1">
          <mxGeometry x="1370" y="480" width="140" height="30" as="geometry" />
        </mxCell>
        <mxCell id="Z-PUwXvcyrmnUzOFV4Wm-145" value="PREDICTION RESULTS" style="text;html=1;align=center;verticalAlign=middle;resizable=0;points=[];autosize=1;strokeColor=none;fillColor=none;" vertex="1" parent="1">
          <mxGeometry x="1360" y="560" width="160" height="30" as="geometry" />
        </mxCell>
        <mxCell id="Z-PUwXvcyrmnUzOFV4Wm-146" style="edgeStyle=orthogonalEdgeStyle;rounded=0;orthogonalLoop=1;jettySize=auto;html=1;exitX=0;exitY=0.5;exitDx=0;exitDy=0;" edge="1" parent="1" source="Z-PUwXvcyrmnUzOFV4Wm-92" target="Z-PUwXvcyrmnUzOFV4Wm-57">
          <mxGeometry relative="1" as="geometry">
            <Array as="points">
              <mxPoint x="1520" y="510" />
            </Array>
          </mxGeometry>
        </mxCell>
      </root>
    </mxGraphModel>
  </diagram>
</mxfile>
